inDegrees=no
num_controls=7
num_derivatives=13
num_iterations=133
num_multipliers=7
num_parameters=0
num_slacks=7
num_states=26
objective=0.446172
objective_accelerations=0.052830
objective_balance=0.003040
objective_effort=0.020475
objective_height=0.365455
objective_ligament=0.004373
solver_duration=1994.732874
status=Solve_Succeeded
success=true
DataType=double
version=3
OpenSimVersion=4.5
endheader
time	/jointset/ground_pelvis/pelvis_tilt/value	/jointset/ground_pelvis/pelvis_tx/value	/jointset/ground_pelvis/pelvis_ty/value	/jointset/hip_l/hip_flexion_l/value	/jointset/hip_l/hip_adduction_l/value	/jointset/hip_l/hip_rotation_l/value	/jointset/back/lumbar_extension/value	/jointset/patellofemoral_l/patellar_flexion_l/value	/jointset/knee_l/knee_flexion_l/value	/jointset/knee_l/knee_adduction_l/value	/jointset/knee_l/knee_rotation_l/value	/jointset/ankle_l/ankle_angle_l/value	/jointset/subtalar_l/subtalar_angle_l/value	/jointset/ground_pelvis/pelvis_tilt/speed	/jointset/ground_pelvis/pelvis_tx/speed	/jointset/ground_pelvis/pelvis_ty/speed	/jointset/hip_l/hip_flexion_l/speed	/jointset/hip_l/hip_adduction_l/speed	/jointset/hip_l/hip_rotation_l/speed	/jointset/back/lumbar_extension/speed	/jointset/patellofemoral_l/patellar_flexion_l/speed	/jointset/knee_l/knee_flexion_l/speed	/jointset/knee_l/knee_adduction_l/speed	/jointset/knee_l/knee_rotation_l/speed	/jointset/ankle_l/ankle_angle_l/speed	/jointset/subtalar_l/subtalar_angle_l/speed	/forceset/tau_hip_flexion_l	/forceset/tau_hip_adduction_l	/forceset/tau_hip_rotation_l	/forceset/tau_knee_flexion_l	/forceset/tau_ankle_angle_l	/forceset/tau_subtalar_angle_l	/forceset/tau_lumbar_extension	lambda_cid13_p0	lambda_cid13_p1	lambda_cid13_p2	lambda_cid13_p3	lambda_cid13_p4	lambda_cid13_p5	lambda_cid14_p0	/jointset/ground_pelvis/pelvis_tilt/accel	/jointset/ground_pelvis/pelvis_tx/accel	/jointset/ground_pelvis/pelvis_ty/accel	/jointset/hip_l/hip_flexion_l/accel	/jointset/hip_l/hip_adduction_l/accel	/jointset/hip_l/hip_rotation_l/accel	/jointset/back/lumbar_extension/accel	/jointset/patellofemoral_l/patellar_flexion_l/accel	/jointset/knee_l/knee_flexion_l/accel	/jointset/knee_l/knee_adduction_l/accel	/jointset/knee_l/knee_rotation_l/accel	/jointset/ankle_l/ankle_angle_l/accel	/jointset/subtalar_l/subtalar_angle_l/accel	gamma_cid13_p0	gamma_cid13_p1	gamma_cid13_p2	gamma_cid13_p3	gamma_cid13_p4	gamma_cid13_p5	gamma_cid14_p0
1	-0.4706362562287766	-0.04921225225759753	0.6047614844748527	1.663906315487908	-0.4771498855569338	0.01308165757274621	-0.2617916713541506	1.355015619321929	1.355015619321734	-0.1107583374228683	-0.1745306156353201	0.2779047008611621	0.01208711017315374	-0.01703014557407945	0.01106124436746576	0.002076757506556544	-0.002287276508058132	-0.002663691831323259	0.001989966032048262	0.0001116457641218446	0.0009712755056321818	0.0009712755056321676	-0.004451706453662623	-0.0001531125933528787	0.0199747307078985	0.008868797466981842	-0.2875214685644698	0.02484201368119756	-0.001896520399307134	-0.3178522749318716	0.008090183932182441	0.03051857278331816	0.2549185143607406	-36.49080035111997	-8.117423082252527	2.388857295045573	8.895096949645245	-632.8886306091481	-55.23133815310519	-2.209112958124442	1.34990507153567	0.1940486893028521	1.785864658967787	-6.155832168776339	-0.01652516904888274	-2.366346784749711	-0.01455559031549405	-5.171167408907166	-5.171167408907284	-0.4971271707814404	-0.02654069691909567	-1.038152587250577	-0.6345818346490703	6.660351104086062e-09	2.509399447533648e-08	-1.322243316142172e-08	4.641186464018811e-09	-7.652358590260961e-10	2.717001063619572e-08	3.932704720329586e-09
1.01	-0.4707399287136309	-0.04909199465264247	0.6048714058910912	1.66357694992857	-0.4771762428112571	0.01298182048931968	-0.2617903831457248	1.354766966798891	1.354766966799605	-0.1108244722053884	-0.1745320587542021	0.2780527642870752	0.01214573671162165	-0.003706686993484108	0.01299065704558082	0.01990469624827068	-0.06357429823439487	-0.002587400973526827	-0.02193442637822753	0.0001443743461848921	-0.05070316314481958	-0.05070316314482079	-0.008767856373923445	-9.834116943835229e-05	0.00963435426389125	0.002881402992707927	-0.2874336370326076	0.0249610822372726	-0.001918406332114503	-0.3176818992755192	0.007932372903161223	0.03053699405836637	0.2548444225812068	-36.52940845517272	-8.122941726403239	2.394624029498282	8.845320491808373	-632.7558940920698	-55.23691481743572	-2.215610160254453	1.323215226239439	0.1924464221119163	1.780831727642709	-6.113407560031899	0.02275623460523519	-2.402046277913387	0.01194384606390213	-5.165788137569265	-5.165788137569357	-0.397750787788381	0.02707146523350269	-1.032518436873852	-0.577092349293865	-2.547301127366008e-10	2.14454870398643e-08	3.791143692498234e-08	8.965084493070794e-09	-1.154217456202672e-08	6.650857902465629e-08	-6.941678476929951e-09
1.02	-0.470710436817695	-0.04895243114789703	0.6051595213439206	1.662635060074874	-0.4772012271527201	0.01264342732003876	-0.2617888162987628	1.354001528680457	1.35400152868208	-0.1109335468641404	-0.1745318370782852	0.2780973162957685	0.01214523448625141	0.009602730583829279	0.01492242432554053	0.03771556482475967	-0.1247921353795151	-0.002389109259277237	-0.04572125113837942	0.000167373472114155	-0.102385843573475	-0.1023858435734761	-0.01303968169978373	0.0001798463819454088	-0.0007275527360381739	-0.002956955300659847	-0.28734580550075	0.02508015079334282	-0.001940292264932492	-0.317511523619167	0.007774561874139124	0.03055541533340762	0.2547703308016693	-36.5753899284556	-8.126928148842659	2.399870814258396	8.826969659701607	-632.7241233925613	-55.21992454922746	-2.234957849782946	1.347096870879281	0.1945196096717788	1.782450625922759	-6.141995252533045	0.007875002241772046	-2.338833254724905	-0.01650148154233349	-5.17281576454791	-5.172815764547769	-0.4882622519013233	0.01814252857479884	-1.042458698435014	-0.6047745984678123	-7.913953018140903e-09	1.46181330473807e-08	8.847335684064147e-08	1.220143815412483e-08	-2.272003056510653e-08	1.049715792370522e-07	-1.850791457093464e-08
1.03	-0.4705478987592563	-0.04879352342660935	0.6056255907045064	1.661081480708794	-0.4772235281351683	0.01206798152151947	-0.2617870833013377	1.352719293993419	1.352719293994559	-0.1110850919388484	-0.1745276305419695	0.2780380817648317	0.01208718821683614	0.02290423062658068	0.01686090308527069	0.05548854583212096	-0.1858973359497937	-0.002041161721200276	-0.06933258962516006	0.0001766213418979493	-0.1540555568861849	-0.1540555568861868	-0.0172578801940587	0.000708081813684323	-0.01112884795626511	-0.008617324415191785	-0.2870022004373945	0.0252280911366862	-0.002002340146478896	-0.3171478616909991	0.007658274042642543	0.03064701971286839	0.2545126613509485	-36.58726032009234	-8.17878547834726	2.424303300389635	8.755101152891793	-632.3877050231573	-55.26888264594466	-2.267329162795571	1.321576554740583	0.1937825870323208	1.773250770926661	-6.090825339722046	0.05272733331199998	-2.367005542593845	0.009247220323800759	-5.163212485990358	-5.163212485990552	-0.3868892061845774	0.07719015074577321	-1.040387145359834	-0.5414397500563113	-1.558076920608176e-08	7.758341845131653e-09	1.390294405300685e-07	1.542669442366868e-08	-3.39019775610443e-08	1.434256450803046e-07	-3.008121038837551e-08
1.04	-0.4702523657036364	-0.04861517680214263	0.6062690956617226	1.658917640760924	-0.4772414551014911	0.01125747805874386	-0.2617853359653975	1.350920529498981	1.350920529499639	-0.1112784771100983	-0.1745167364312829	0.2778745498393839	0.01197358391985351	0.03620173002003232	0.01881020496135017	0.07320268415083363	-0.2468442517379441	-0.00151430603427113	-0.09273278398951036	0.0001702411750835328	-0.205691805053208	-0.2056918050532113	-0.02140770100809385	0.001517361256314034	-0.02158703163822401	-0.01406856081414259	-0.286658595374032	0.02537603148003043	-0.002064388028027164	-0.3167841997628315	0.007541986211145074	0.0307386240923298	0.2542549919002348	-36.60650121408872	-8.22897721703235	2.448041707919927	8.714828965871387	-632.1523930696984	-55.29580011508207	-2.312947660878521	1.346296741019322	0.1966842329416539	1.770682088193033	-6.110338296107414	0.04365663201216179	-2.296604430238887	-0.01962708886206822	-5.166122735410521	-5.166122735410541	-0.4745867158533799	0.07435133075286035	-1.053836390781395	-0.5629480553516433	-2.292296943175557e-08	1.301472625202984e-09	1.884365751469058e-07	1.868011158722551e-08	-4.464523690978423e-08	1.80180115110449e-07	-4.115709998881631e-08
1.05	-0.469823843887335	-0.04841725163909961	0.6070893750165246	1.656145249997765	-0.4772531527612031	0.01021415713408258	-0.2617837316489393	1.348605676901818	1.348605676902229	-0.1115130037685514	-0.1744962995179062	0.2776061320440854	0.01180659725504188	0.04950435508764114	0.02077962495473155	0.09083612360193988	-0.3075937450620558	-0.0007872944216965368	-0.1158841370477333	0.0001489348662390692	-0.2572627347756781	-0.257262734775682	-0.02548136224397491	0.002623902468904536	-0.03210761417459904	-0.01928331818622786	-0.2860489362645571	0.02555357276721586	-0.002166473424470882	-0.3162524209434701	0.007548598451715414	0.03088475773698524	0.2538126025522425	-36.5650211349366	-8.322402354489814	2.488861051238177	8.584374361579899	-631.6079520876908	-55.36759286225496	-2.372195821726035	1.32249956603976	0.1977948984335019	1.757104209083695	-6.051236729347082	0.09288489363998471	-2.317344945637372	0.006364510263745614	-5.15017059484998	-5.150170594850023	-0.3713312384574252	0.1369431008217063	-1.052829957808202	-0.493948946538808	-3.025502540860853e-08	-5.142805282778177e-09	2.378078051052247e-07	2.193440877872024e-08	-5.537478726954922e-08	2.168814727714339e-07	-5.221744564497585e-08
